<?xml version="1.0" standalone="no"?>
<!DOCTYPE svg PUBLIC "-//W3C//DTD SVG 20010904//EN"
 "http://www.w3.org/TR/2001/REC-SVG-20010904/DTD/svg10.dtd">
<svg version="1.0" xmlns="http://www.w3.org/2000/svg"
 width="512.000000pt" height="512.000000pt" viewBox="0 0 512.000000 512.000000"
 preserveAspectRatio="xMidYMid meet">
<metadata>
Created by potrace 1.11, written by Peter Selinger 2001-2013
</metadata>
<g transform="translate(0.000000,512.000000) scale(0.100000,-0.100000)"
fill="#000000" stroke="none">
<path d="M1820 4820 l0 -60 -120 0 -120 0 0 -60 0 -60 -120 0 -120 0 0 -60 0
-60 -125 0 -125 0 0 -65 0 -65 -60 0 -60 0 0 -60 0 -60 -60 0 -60 0 0 -60 0
-60 -60 0 -60 0 0 -60 0 -60 -65 0 -65 0 0 -125 0 -125 -60 0 -60 0 0 -120 0
-120 -60 0 -60 0 0 -120 0 -120 -60 0 -60 0 0 -670 0 -670 60 0 60 0 0 -185 0
-185 60 0 60 0 0 -120 0 -120 60 0 60 0 0 -65 0 -65 65 0 65 0 0 -60 0 -60 60
0 60 0 0 -60 0 -60 60 0 60 0 0 -60 0 -60 60 0 60 0 0 -60 0 -60 60 0 60 0 0
-65 0 -65 125 0 125 0 0 -60 0 -60 120 0 120 0 0 -60 0 -60 245 0 245 0 0 -60
0 -60 365 0 365 0 0 60 0 60 185 0 185 0 0 60 0 60 180 0 180 0 0 60 0 60 60
0 60 0 0 65 0 65 125 0 125 0 0 60 0 60 60 0 60 0 0 60 0 60 60 0 60 0 0 60 0
60 60 0 60 0 0 125 0 125 65 0 65 0 0 60 0 60 60 0 60 0 0 180 0 180 60 0 60
0 0 185 0 185 60 0 60 0 0 365 0 365 -60 0 -60 0 0 245 0 245 -60 0 -60 0 0
120 0 120 -60 0 -60 0 0 125 0 125 -65 0 -65 0 0 60 0 60 -60 0 -60 0 0 60 0
60 -60 0 -60 0 0 60 0 60 -60 0 -60 0 0 60 0 60 -60 0 -60 0 0 65 0 65 -65 0
-65 0 0 60 0 60 -120 0 -120 0 0 60 0 60 -185 0 -185 0 0 60 0 60 -670 0 -670
0 0 -60z m610 -365 l0 -65 65 0 65 0 0 -180 0 -180 -65 0 -65 0 0 -125 0 -125
65 0 65 0 0 65 0 65 60 0 60 0 0 120 0 120 60 0 60 0 0 60 0 60 60 0 60 0 0
60 0 60 60 0 60 0 0 65 0 65 125 0 125 0 0 -65 0 -65 60 0 60 0 0 -60 0 -60
-60 0 -60 0 0 -60 0 -60 60 0 60 0 0 -60 0 -60 -60 0 -60 0 0 -60 0 -60 -65 0
-65 0 0 -65 0 -65 -120 0 -120 0 0 -60 0 -60 60 0 60 0 0 -60 0 -60 125 0 125
0 0 -60 0 -60 -125 0 -125 0 0 -60 0 -60 -180 0 -180 0 0 -65 0 -65 60 0 60 0
0 -60 0 -60 60 0 60 0 0 60 0 60 60 0 60 0 0 -60 0 -60 60 0 60 0 0 -60 0 -60
-60 0 -60 0 0 -60 0 -60 245 0 245 0 0 120 0 120 60 0 60 0 0 125 0 125 60 0
60 0 0 60 0 60 125 0 125 0 0 -125 0 -125 60 0 60 0 0 -120 0 -120 60 0 60 0
0 -60 0 -60 60 0 60 0 0 -245 0 -245 -60 0 -60 0 0 -60 0 -60 -60 0 -60 0 0
-120 0 -120 60 0 60 0 0 -125 0 -125 -60 0 -60 0 0 -60 0 -60 -60 0 -60 0 0
60 0 60 -60 0 -60 0 0 60 0 60 -65 0 -65 0 0 -60 0 -60 -60 0 -60 0 0 -60 0
-60 -60 0 -60 0 0 -120 0 -120 -60 0 -60 0 0 60 0 60 -60 0 -60 0 0 60 0 60
-65 0 -65 0 0 60 0 60 -60 0 -60 0 0 60 0 60 -60 0 -60 0 0 65 0 65 -60 0 -60
0 0 60 0 60 -60 0 -60 0 0 60 0 60 -125 0 -125 0 0 -60 0 -60 -60 0 -60 0 0
-60 0 -60 -60 0 -60 0 0 -65 0 -65 -60 0 -60 0 0 -60 0 -60 -60 0 -60 0 0 -60
0 -60 -65 0 -65 0 0 -60 0 -60 -60 0 -60 0 0 -60 0 -60 -60 0 -60 0 0 120 0
120 -60 0 -60 0 0 60 0 60 -60 0 -60 0 0 60 0 60 -65 0 -65 0 0 -60 0 -60 -60
0 -60 0 0 -60 0 -60 -60 0 -60 0 0 60 0 60 -60 0 -60 0 0 125 0 125 60 0 60 0
0 120 0 120 -60 0 -60 0 0 60 0 60 -60 0 -60 0 0 245 0 245 60 0 60 0 0 60 0
60 60 0 60 0 0 120 0 120 60 0 60 0 0 125 0 125 125 0 125 0 0 -60 0 -60 60 0
60 0 0 -125 0 -125 60 0 60 0 0 -60 0 -60 60 0 60 0 0 -60 0 -60 185 0 185 0
0 60 0 60 -60 0 -60 0 0 60 0 60 60 0 60 0 0 60 0 60 60 0 60 0 0 -60 0 -60
60 0 60 0 0 60 0 60 60 0 60 0 0 125 0 125 -60 0 -60 0 0 60 0 60 -60 0 -60 0
0 365 0 365 -60 0 -60 0 0 -245 0 -245 -60 0 -60 0 0 305 0 305 60 0 60 0 0
65 0 65 180 0 180 0 0 -65z m250 -2805 l0 -60 60 0 60 0 0 -60 0 -60 60 0 60
0 0 -60 0 -60 60 0 60 0 0 -65 0 -65 60 0 60 0 0 -60 0 -60 65 0 65 0 0 -60 0
-60 -65 0 -65 0 0 -60 0 -60 -60 0 -60 0 0 -60 0 -60 -120 0 -120 0 0 -65 0
-65 -245 0 -245 0 0 65 0 65 -120 0 -120 0 0 60 0 60 -60 0 -60 0 0 60 0 60
-65 0 -65 0 0 60 0 60 65 0 65 0 0 60 0 60 60 0 60 0 0 65 0 65 60 0 60 0 0
60 0 60 60 0 60 0 0 60 0 60 60 0 60 0 0 60 0 60 125 0 125 0 0 -60z"/>
<path d="M1210 3110 l0 -60 -60 0 -60 0 0 -120 0 -120 -120 0 -120 0 0 -185 0
-185 60 0 60 0 0 -60 0 -60 60 0 60 0 0 -60 0 -60 185 0 185 0 0 -60 0 -60 60
0 60 0 0 240 0 240 -120 0 -120 0 0 65 0 65 -125 0 -125 0 0 60 0 60 185 0
185 0 0 120 0 120 -60 0 -60 0 0 60 0 60 -65 0 -65 0 0 -60z"/>
<path d="M3770 3110 l0 -60 -60 0 -60 0 0 -120 0 -120 185 0 185 0 0 -60 0
-60 -125 0 -125 0 0 -65 0 -65 -120 0 -120 0 0 -240 0 -240 60 0 60 0 0 60 0
60 185 0 185 0 0 60 0 60 60 0 60 0 0 60 0 60 60 0 60 0 0 185 0 185 -120 0
-120 0 0 120 0 120 -60 0 -60 0 0 60 0 60 -65 0 -65 0 0 -60z"/>
<path d="M2070 2990 l0 -60 60 0 60 0 0 -60 0 -60 60 0 60 0 0 60 0 60 60 0
60 0 0 -60 0 -60 125 0 125 0 0 60 0 60 60 0 60 0 0 -60 0 -60 60 0 60 0 0 60
0 60 60 0 60 0 0 60 0 60 -60 0 -60 0 0 -60 0 -60 -60 0 -60 0 0 60 0 60 -60
0 -60 0 0 -60 0 -60 -125 0 -125 0 0 60 0 60 -60 0 -60 0 0 -60 0 -60 -60 0
-60 0 0 60 0 60 -60 0 -60 0 0 -60z"/>
<path d="M1820 2625 l0 -65 -60 0 -60 0 0 -120 0 -120 60 0 60 0 0 -60 0 -60
125 0 125 0 0 60 0 60 60 0 60 0 0 120 0 120 -60 0 -60 0 0 65 0 65 -125 0
-125 0 0 -65z"/>
<path d="M3040 2625 l0 -65 -60 0 -60 0 0 -120 0 -120 60 0 60 0 0 -60 0 -60
125 0 125 0 0 60 0 60 60 0 60 0 0 120 0 120 -60 0 -60 0 0 65 0 65 -125 0
-125 0 0 -65z"/>
<path d="M2430 1285 l0 -65 -60 0 -60 0 0 -120 0 -120 60 0 60 0 0 -60 0 -60
125 0 125 0 0 60 0 60 60 0 60 0 0 120 0 120 -60 0 -60 0 0 65 0 65 -125 0
-125 0 0 -65z"/>
</g>
</svg>
