<?xml version="1.0" encoding="UTF-8" standalone="no"?>
<!DOCTYPE svg PUBLIC "-//W3C//DTD SVG 1.1//EN" "http://www.w3.org/Graphics/SVG/1.1/DTD/svg11.dtd">
<svg width="100%" height="100%" viewBox="0 0 5906 5906" version="1.1" xmlns="http://www.w3.org/2000/svg" xmlns:xlink="http://www.w3.org/1999/xlink" xml:space="preserve" xmlns:serif="http://www.serif.com/" style="fill-rule:evenodd;clip-rule:evenodd;stroke-linecap:round;stroke-linejoin:round;stroke-miterlimit:1.5;">
    <path d="M7322.84,-1417.32L-3307.09,-1417.32L-3307.09,6614.17L7322.84,6614.17L7322.84,-1417.32ZM4435.29,1470.22C4435.29,1470.22 4532.56,1616.97 4532.56,1705.04C4532.56,1793.12 4497.57,1877.59 4435.29,1939.87C4111.93,2263.22 3727.79,2647.36 3404.43,2970.72C3342.15,3033 3257.69,3067.99 3169.61,3067.99C3081.54,3067.99 2997.07,3034 2934.79,2971.72L2021.44,3884.07C2325.96,4188.58 2738.97,4359.66 3169.61,4359.66C3600.26,4359.66 4013.26,4188.58 4317.78,3884.07C4641.14,3560.71 5025.28,3176.57 5348.64,2853.21C5653.15,2548.7 5824.22,2135.69 5824.22,1705.04C5824.22,1274.4 5653.15,861.39 5348.64,556.877L5348.64,556.876C5044.12,252.363 4435.29,1470.22 4435.29,1470.22Z" style="fill:none;"/>
    <clipPath id="_clip1">
        <path d="M7322.84,-1417.32L-3307.09,-1417.32L-3307.09,6614.17L7322.84,6614.17L7322.84,-1417.32ZM4435.29,1470.22C4435.29,1470.22 4532.56,1616.97 4532.56,1705.04C4532.56,1793.12 4497.57,1877.59 4435.29,1939.87C4111.93,2263.22 3727.79,2647.36 3404.43,2970.72C3342.15,3033 3257.69,3067.99 3169.61,3067.99C3081.54,3067.99 2997.07,3034 2934.79,2971.72L2021.44,3884.07C2325.96,4188.58 2738.97,4359.66 3169.61,4359.66C3600.26,4359.66 4013.26,4188.58 4317.78,3884.07C4641.14,3560.71 5025.28,3176.57 5348.64,2853.21C5653.15,2548.7 5824.22,2135.69 5824.22,1705.04C5824.22,1274.4 5653.15,861.39 5348.64,556.877L5348.64,556.876C5044.12,252.363 4435.29,1470.22 4435.29,1470.22Z"/>
    </clipPath>
    <g clip-path="url(#_clip1)">
        <g transform="matrix(1.95155,1.95155,-1.7031,1.7031,2388.03,-3397.46)">
            <path d="M1771.65,1417.32C1677.68,1417.32 1587.55,1460.1 1521.1,1536.24C1454.65,1612.39 1417.32,1715.66 1417.32,1823.34L1417.32,2428.63C1417.32,2536.31 1454.65,2639.58 1521.1,2715.72C1587.55,2791.87 1677.68,2834.65 1771.65,2834.65L1771.65,2834.65C1865.63,2834.65 1955.75,2791.87 2022.2,2715.72C2088.65,2639.58 2125.98,2536.31 2125.98,2428.63L2125.98,1823.34C2125.98,1715.66 2088.65,1612.39 2022.2,1536.24C1955.75,1460.1 1865.63,1417.32 1771.65,1417.32L1771.65,1417.32Z" style="fill:none;stroke:rgb(92,51,142);stroke-width:241.29px;"/>
        </g>
    </g>
    <g transform="matrix(-1,-1.77976e-16,6.69535e-17,-1,5905.51,5905.51)">
        <path d="M7322.84,-1417.32L-3307.09,-1417.32L-3307.09,6614.17L7322.84,6614.17L7322.84,-1417.32ZM4435.29,1470.22C4435.29,1470.22 4532.56,1616.97 4532.56,1705.04C4532.56,1793.12 4497.57,1877.59 4435.29,1939.87C4111.93,2263.22 3727.79,2647.36 3404.43,2970.72C3342.15,3033 3257.69,3067.99 3169.61,3067.99C3081.54,3067.99 2997.07,3034 2934.79,2971.72L2021.44,3884.07C2325.96,4188.58 2738.97,4359.66 3169.61,4359.66C3600.26,4359.66 4013.26,4188.58 4317.78,3884.07C4641.14,3560.71 5025.28,3176.57 5348.64,2853.21C5653.15,2548.7 5824.22,2135.69 5824.22,1705.04C5824.22,1274.4 5653.15,861.39 5348.64,556.877L5348.64,556.876C5044.12,252.363 4435.29,1470.22 4435.29,1470.22Z" style="fill:none;"/>
        <clipPath id="_clip2">
            <path d="M7322.84,-1417.32L-3307.09,-1417.32L-3307.09,6614.17L7322.84,6614.17L7322.84,-1417.32ZM4435.29,1470.22C4435.29,1470.22 4532.56,1616.97 4532.56,1705.04C4532.56,1793.12 4497.57,1877.59 4435.29,1939.87C4111.93,2263.22 3727.79,2647.36 3404.43,2970.72C3342.15,3033 3257.69,3067.99 3169.61,3067.99C3081.54,3067.99 2997.07,3034 2934.79,2971.72L2021.44,3884.07C2325.96,4188.58 2738.97,4359.66 3169.61,4359.66C3600.26,4359.66 4013.26,4188.58 4317.78,3884.07C4641.14,3560.71 5025.28,3176.57 5348.64,2853.21C5653.15,2548.7 5824.22,2135.69 5824.22,1705.04C5824.22,1274.4 5653.15,861.39 5348.64,556.877L5348.64,556.876C5044.12,252.363 4435.29,1470.22 4435.29,1470.22Z"/>
        </clipPath>
        <g clip-path="url(#_clip2)">
            <g transform="matrix(1.95155,1.95155,-1.7031,1.7031,2388.03,-3397.46)">
                <path d="M1771.65,1417.32C1677.68,1417.32 1587.55,1460.1 1521.1,1536.24C1454.65,1612.39 1417.32,1715.66 1417.32,1823.34L1417.32,2428.63C1417.32,2536.31 1454.65,2639.58 1521.1,2715.72C1587.55,2791.87 1677.68,2834.65 1771.65,2834.65L1771.65,2834.65C1865.63,2834.65 1955.75,2791.87 2022.2,2715.72C2088.65,2639.58 2125.98,2536.31 2125.98,2428.63L2125.98,1823.34C2125.98,1715.66 2088.65,1612.39 2022.2,1536.24C1955.75,1460.1 1865.63,1417.32 1771.65,1417.32L1771.65,1417.32Z" style="fill:none;stroke:rgb(92,51,142);stroke-width:241.29px;"/>
            </g>
        </g>
    </g>
</svg>
